<?xml version="1.0" encoding="UTF-8"?>
<!DOCTYPE svg PUBLIC "-//W3C//DTD SVG 1.1//EN" "http://www.w3.org/Graphics/SVG/1.1/DTD/svg11.dtd">
<svg xmlns="http://www.w3.org/2000/svg" version="1.1" width="200px" height="200px" style="shape-rendering:geometricPrecision; text-rendering:geometricPrecision; image-rendering:optimizeQuality; fill-rule:evenodd; clip-rule:evenodd" xmlns:xlink="http://www.w3.org/1999/xlink">
<g><path style="opacity:0.773" fill="#000000" d="M 93.5,19.5 C 111.199,18.5369 127.532,22.7036 142.5,32C 151.079,38.4038 154.579,46.9038 153,57.5C 148.279,94.8793 143.279,132.213 138,169.5C 131.362,178.915 122.196,184.415 110.5,186C 96.5001,188.096 83.1668,186.096 70.5,180C 65.5551,177.054 62.0551,172.888 60,167.5C 55.4153,131.822 50.7486,96.1558 46,60.5C 43.5929,43.5618 50.4263,32.0618 66.5,26C 75.3797,22.7296 84.3797,20.5629 93.5,19.5 Z M 94.5,24.5 C 111.764,23.6458 127.43,28.1458 141.5,38C 149.178,45.2612 150.345,53.4279 145,62.5C 135.228,72.2124 123.394,77.7124 109.5,79C 91.988,81.139 75.6546,77.8057 60.5,69C 46.711,56.5467 47.3777,44.88 62.5,34C 72.6484,28.6352 83.315,25.4685 94.5,24.5 Z M 52.5,69.5 C 66.2161,80.1871 81.8828,85.1871 99.5,84.5C 116.848,84.9943 132.348,79.9943 146,69.5C 142.103,101.117 138.103,132.783 134,164.5C 131.027,172.136 125.527,176.969 117.5,179C 102.775,183.081 88.4416,182.081 74.5,176C 70.2811,173.448 67.1145,169.948 65,165.5C 60.6683,133.513 56.5016,101.513 52.5,69.5 Z"/></g>
<g><path style="opacity:0.948" fill="#000000" d="M 96.5,40.5 C 110.865,40.2701 124.199,43.7701 136.5,51C 139.206,53.3706 141.539,56.0372 143.5,59C 135.266,68.2846 124.932,73.618 112.5,75C 98.2052,77.0337 84.2052,75.7004 70.5,71C 63.8034,68.458 58.4701,64.2913 54.5,58.5C 58.4701,52.7087 63.8034,48.542 70.5,46C 79.078,43.0526 87.7446,41.2193 96.5,40.5 Z"/></g>
<g><path style="opacity:0.767" fill="#000000" d="M 63.5,97.5 C 70.7071,99.9276 78.0404,102.094 85.5,104C 90.8076,104.83 96.1409,105.33 101.5,105.5C 102.259,109.24 100.759,110.907 97,110.5C 85.4902,110.199 74.6569,107.366 64.5,102C 62.4523,100.774 62.119,99.2741 63.5,97.5 Z"/></g>
</svg>
